<svg xmlns="http://www.w3.org/2000/svg" viewBox="0 0 59.79 87.7"><defs><style>.cls-1{fill:#fff;}</style></defs><title>Recurso 5</title><g id="Capa_2" data-name="Capa 2"><g id="Capa_1-2" data-name="Capa 1"><path class="cls-1" d="M59.76,47.12c-1.24.47-2.49,1.21-3.81,1-1.89-.28-1.44.94-1.46,1.9a11.65,11.65,0,0,1-1.44,5.17,7.59,7.59,0,0,0-.22,7.36c.12.26.34.51.11.76s-.49,0-.75-.07c-.79-.25-1.58-.46-2.45-.71a9,9,0,0,1-3.65,6.78,7.18,7.18,0,0,0-2.4,3.84c-.06.22.06.5-.28.58s-.53-.15-.7-.36c-.3-.41-.57-.84-1-1.43-1.27,2.88-4.37,4.07-5.8,6.9-.34-.92-.17-2-1.21-2.55a15.72,15.72,0,0,1-3.62,5.58c-.83.82-1.43.72-2.2-.19a16.73,16.73,0,0,1-3.35-5.21,1.74,1.74,0,0,0-.84,1.6.53.53,0,0,1-.31.58.32.32,0,0,1-.4-.18c-.8-1.54-2.4-2.27-3.5-3.52a13.55,13.55,0,0,1-1.93-2.62A18.47,18.47,0,0,1,17.42,74c-.31.34-.79.65-.85-.21A5.54,5.54,0,0,0,14,69.66a7.59,7.59,0,0,1-3.4-5.91c-.05-.76-.56-.6-.93-.52-.64.15-1.25.46-1.89.65a.87.87,0,0,1-.68-.07c-.24-.2,0-.44.14-.62a6.66,6.66,0,0,0,.07-6.61c-.94-2-2.14-4-1.94-6.34.12-1.4-.32-1.54-1.49-1.47A11,11,0,0,1,0,47.84v-.72c2.43-1.86,2.2-4.76,2.88-7.3a4.76,4.76,0,0,1,.4-1.58c1-1.28.5-2-.8-2.44a1.44,1.44,0,0,1-.4-.23C1.67,35.2,1,34.9,1,34.35s.75-.57,1.24-.73c2.2-.75,3.2-2.7,4.31-4.5,1.54-2.51,3-5.1,5.33-7,1.79-1.43,3.72-2.72,6.1-2.82,1.51-.06,3-.07,4.54-.22a6.34,6.34,0,0,1,3.42.69,3.2,3.2,0,0,0,3.83-1.54c1.1-3.09,2.69-6,3.41-9.22.54-2.4.66-4.76-1.29-6.65a4.82,4.82,0,0,0-6.71.71,1.44,1.44,0,0,0,.16,1.86A11.35,11.35,0,0,1,26.14,6,1.67,1.67,0,0,1,26,8a1.47,1.47,0,0,1-1.75.4A1.85,1.85,0,0,1,23,6.77,5.75,5.75,0,0,1,28,.16a8.4,8.4,0,0,1,6.81,1.5c2.06,1.61,2.67,4.67,1.75,7.51a20.42,20.42,0,0,1-3.53,6,15.5,15.5,0,0,0-2.2,4.06,7.37,7.37,0,0,0,4-.15c1.47-.63,3.13,0,4.68-.1,5.71-.32,9.16,3,12,7.25,1.32,2,2.42,4.13,4.28,5.72a4.93,4.93,0,0,0,2.15,1.18c1.06.22.72.57.27,1a7.78,7.78,0,0,1-2,1.65c-.21.11-.37.22-.41.38a.59.59,0,0,0,.12.44c.46.68.81,3.92,2,6.92C58.22,44.43,60.06,47,59.76,47.12ZM30.54,21.44a9,9,0,0,0-5,1,15,15,0,0,0-4.42,3.64c-1.75,2.32-2.8,4.8-2.17,7.78a17.06,17.06,0,0,0,3.16,6.74,19,19,0,0,0,7.29,6.17c.21.1.47.37.74.09C31,46,32.31,45.8,33.26,45a24.18,24.18,0,0,0,5.87-7.1,12.42,12.42,0,0,0,1.67-5,10.13,10.13,0,0,0-4.61-9.17C34.52,22.54,32.81,21.24,30.54,21.44ZM4.08,34.52a12.8,12.8,0,0,0,3.37,1.07c.48,0,1,.56,1.44.07a1.33,1.33,0,0,1,1.54-.24,7.8,7.8,0,0,0,5.05-.27c2.26-.78,2.42-.73,1.69-3.13a6.58,6.58,0,0,1,2.41-7.31,3.26,3.26,0,0,0,1.22-1.55c.26-.93,1-1.27,1.58-1.81.19-.16.57-.13.53-.5-2.41-.71-4.49.5-6.58,1.24A12.76,12.76,0,0,0,9.8,27.7C8.25,30.2,6.64,32.7,4.08,34.52ZM55.55,34a21.39,21.39,0,0,1-4.23-4.46c-1.8-2.35-3.1-5.09-5.88-6.68a32.85,32.85,0,0,0-5.84-2.28,3.31,3.31,0,0,0-3-.05c.68.76,1.73,1.11,2,2.09a4.05,4.05,0,0,0,1.44,1.93,6.7,6.7,0,0,1,2.35,7.15c-.58,1.87-.31,2.4,1.51,3a9.21,9.21,0,0,0,5,.3,11.16,11.16,0,0,1,2.71.13A12.35,12.35,0,0,0,55.55,34ZM27.93,57c-.63,1.67-2.19,2.53-3.21,3.85a2.38,2.38,0,0,0-.6,2.35,14.66,14.66,0,0,0,4,6.4c1.36,1.34,1.85,1.24,3.43.07,2.12-1.59,3.25-3.86,4.34-6.15a2.61,2.61,0,0,0-.73-3.27c-.92-.9-2.22-1.49-2.75-2.8-.15-.38-.43-.22-.66,0a4.13,4.13,0,0,0-.72.93c-.29.46-.61.62-1.13.12A17.51,17.51,0,0,0,27.93,57ZM10,40.4c.15,1,.23,2,.45,2.91a28.89,28.89,0,0,0,2.69,6.48c.29.56.38.46.69.13A7.78,7.78,0,0,1,18,47.55a4.57,4.57,0,0,0,3.27-3.41c.35-1,.6-2.18-.66-3a8.21,8.21,0,0,1-2.35-3c-.42-.71-1.05-1.41-2-1.15a25.12,25.12,0,0,1-5.24.71.7.7,0,0,0-.69.67A6.67,6.67,0,0,0,10,40.4Zm36.44,9.31a19.54,19.54,0,0,1,.93-1.83,14.66,14.66,0,0,0,2.06-9c-.09-1.51-.13-1.48-1.57-1.68a23.27,23.27,0,0,1-3.62-.46,2.23,2.23,0,0,0-3.13,1.5,5.74,5.74,0,0,1-.82,1.27c-.89,1.14-2.73,1.83-1.94,3.86.61,1.58,1.34,3.08,3.1,3.53A11.72,11.72,0,0,1,46.46,49.71Zm-2.25,1.42c.26-1-.44-1.7-1.66-2.08a21.82,21.82,0,0,1-2.09-.78c-.78-.35-1.44-.07-1.58.74a3.75,3.75,0,0,1-1.57,2.79,8.67,8.67,0,0,0-2.49,2.71.9.9,0,0,0-.21.65c.5,1.2.49,2.6,1.58,3.57A11.08,11.08,0,0,1,38,60.83c.35.53.52.45.86.09.61-.63,1.26-1.23,1.86-1.87A12,12,0,0,0,44.21,51.13ZM21.71,61.68a3.32,3.32,0,0,1,.23-.37c1.31-1.64,3-3,3.15-5.39,0-.27.61-.24.28-.7A11.25,11.25,0,0,0,23,52.3a4.75,4.75,0,0,1-1.95-2.69c-.36-1.24-.73-1.37-2-.83-.66.27-1.34.47-2,.76s-1.47.82-1.35,1.59a16.75,16.75,0,0,0,.62,3.69A17.28,17.28,0,0,0,21.71,61.68Zm21.5,9c1.3-2.14,3.23-3.73,3.85-6.15.29-1.16,1.28-2.33.12-3.48a20.1,20.1,0,0,1-3-3.94,24.41,24.41,0,0,1-3.68,4.26c-.75.69-1.46,1.66-2.36,1.92-1.08.31-.8,1.08-.93,1.64a1.29,1.29,0,0,0,1,1.57A3.1,3.1,0,0,1,40.09,68a.92.92,0,0,0,.52.43A4.69,4.69,0,0,1,43.21,70.72Zm-26.06.53c.13-.57.22-.91.53-1.14,1.33-1,2.59-2,4-2.89a2,2,0,0,0,1.18-1.82c-.07-.6.32-1.9-1.14-1.78-.11,0-.23-.2-.35-.3a29.79,29.79,0,0,1-5.64-5.89A7.29,7.29,0,0,1,13.37,61a2.36,2.36,0,0,0-.85,1.68A9.85,9.85,0,0,0,14,67.13C14.73,68.57,16.12,69.63,17.15,71.25Zm6.47-26c-.33.93.61,1.78.38,2.49-.31,1,.18,1.47.62,2.1a3.63,3.63,0,0,1,.36.74c.7,2,2.24,3.37,3.75,4.74a1.46,1.46,0,0,0,2.15.16,18.45,18.45,0,0,0,5.6-8.61c.29-.9.89-2-.14-3.06a16,16,0,0,1-3,3.15c-1.07,1-1.88,2.21-2.87,3.26a.81.81,0,0,1-1.39-.09c-1.42-2.24-3.83-3.54-5.35-5.68a.32.32,0,0,0-.5-.1c-.37.35-.14.83-.19,1.25,0,.05.06.1.09.15C23.41,45.67,23.16,45.21,23.62,45.23Zm22.3,7C44.81,55,47,58.88,50.33,60.39c.25-1-.09-2,.23-3a27.55,27.55,0,0,0,1.28-8.21,3.19,3.19,0,0,0-.1-1.06c-.21-.62-.46-1.31-1.12-1.38s-.91.62-1.19,1.15Q48.26,50,47,52.16C46.76,52.63,46.41,53.38,45.92,52.26Zm-31.81.5c-.63,1-1,.23-1.32-.24-.89-1.52-1.7-3.09-2.57-4.63A5.47,5.47,0,0,0,9.44,47c-.3.3-.8.34-1,.78a6.58,6.58,0,0,0-.36,4.3c.64,2.92,1.57,5.77,1.57,8.8C12.58,59.91,15.29,55.62,14.11,52.76Zm40.72-6.11c.65-.09,1.6,0,2.1-.54s-.4-1.06-.51-1.65c0-.12,0-.25,0-.36-.58-2.21-.82-4.48-2-6.54-.66-1.09-1.28-.68-1.92-.48a1.38,1.38,0,0,0-1.1,1.53A13.12,13.12,0,0,1,51,43.68,1.85,1.85,0,0,0,52.12,46,5.43,5.43,0,0,0,54.83,46.65ZM8.39,41.53a10.18,10.18,0,0,0-.17-2.73,2,2,0,0,0-2.05-1.41c-.53,0-.65.68-.94,1.11C4,40.38,3.85,42.57,3.44,44.67c-.14.75-1.13,1.49-.5,2.17s1.68.19,2.54.27c.16,0,.32,0,.48,0,1.28.11,2.1-.8,2.94-1.5.44-.35-.19-1-.27-1.61A10.49,10.49,0,0,1,8.39,41.53ZM27.57,71.37c-.05-.31-.32-.38-.55-.54a11.12,11.12,0,0,1-2.21-1.73.84.84,0,0,0-1.24-.23,15.73,15.73,0,0,1-1.79,1c-1.61,1.13-1.64,1.27-.47,2.82a20.33,20.33,0,0,0,1.3,1.64c.59.64,1.21,1.41,2.1.27.25-.32.72-.45,1.08-.69A5.58,5.58,0,0,0,27.57,71.37Zm12.08-.2a4,4,0,0,0-.14-.48A8.07,8.07,0,0,0,36,68.33c-.3,0-.41.19-.56.35a9.88,9.88,0,0,1-2.28,2c-.47.28-.5.51-.29,1,.73,1.6,2.43,2.18,3.47,3.45.15.18.37,0,.49-.19.8-1,1.59-2,2.36-3A5.37,5.37,0,0,0,39.65,71.17ZM29.06,72.5c-.41.25-.82.36-1,.84a2.77,2.77,0,0,0,0,2.29c.24.53.82,1.36.66,1.54-1.08,1.24.38,1.63.71,2.33s.69.6,1.35,0c1.42-1.31.91-3.14,1.6-4.62a2.26,2.26,0,0,0-.24-2c-.2-.42-.7-.83-1-.55C30.45,73,29.88,73.53,29.06,72.5Z"/><path class="cls-1" d="M29.28,87.2a2.22,2.22,0,0,1-.87-2.62,1.79,1.79,0,0,1,3.21-.41,2.14,2.14,0,0,1,.06,2.26,4.34,4.34,0,0,1-.66.77C30.18,87.87,30.18,87.87,29.28,87.2Z"/></g></g></svg>