<?xml version="1.0" encoding="utf-8"?>
<!-- Generator: Adobe Illustrator 22.0.0, SVG Export Plug-In . SVG Version: 6.00 Build 0)  -->
<svg version="1.1" id="Capa_1" xmlns="http://www.w3.org/2000/svg" xmlns:xlink="http://www.w3.org/1999/xlink" x="0px" y="0px"
	 viewBox="0 0 612 792" style="enable-background:new 0 0 612 792;" xml:space="preserve">
<style type="text/css">
	.st0{fill:#FEFEFE;}
	.st1{fill:#CBA334;}
	.st2{fill:#FEFEFD;}
</style>
<g>
	<path class="st0" d="M264.1,408.4c0-15.4,0-30.9,0-46.3c0-0.8,0.2-1,1-1c19.3,0,38.6,0,57.8,0c0.8,0,1,0.2,1,1
		c0,15.2,0,30.4,0,45.6c-1.4-0.9-1.8-2.3-2.1-3.8c-0.5-2-0.6-4.1-1.8-5.9c-0.3-0.4-0.1-0.6,0.3-0.8c0.8-0.4,1.4-1,2-1.6
		c0.4-0.5,0.8-0.8-0.3-1.1c-0.8-0.2-1.5-0.6-2.1-1.2c-1.9-1.6-3-3.7-4.3-5.7c-2.8-4.3-6.3-7.6-12-7.2c-1.6,0.1-3.2-0.5-4.7,0.1
		c-1.3,0.6-2.6,0.3-3.9,0.1c0.5-1.5,1.3-2.8,2.2-4.1c1.4-1.9,2.8-3.7,3.5-6c0.9-2.8,0.3-5.9-1.8-7.5c-2-1.6-4.4-1.9-6.8-1.5
		c-3.4,0.6-5.3,3.3-4.9,6.6c0.1,0.8,0.5,1.4,1.2,1.6c0.6,0.2,1.3,0.2,1.8-0.4c0.5-0.6,0.5-1.3,0.1-2c-0.2-0.4-0.5-0.7-0.8-1.1
		c-0.5-0.6-0.6-1.2-0.2-1.9c1.4-2,5-2.4,6.7-0.7c2,1.9,1.8,4.3,1.3,6.7c-0.7,3.2-2.3,6.1-3.4,9.2c-0.5,1.3-2.6,2.1-3.8,1.5
		c-1.1-0.5-2.3-0.8-3.4-0.7c-1.5,0.1-3,0.2-4.5,0.2c-2.4,0.1-4.3,1.4-6.1,2.8c-2.3,1.9-3.8,4.5-5.3,7c-1.1,1.8-2.1,3.7-4.3,4.5
		c-0.5,0.2-1.2,0.2-1.2,0.7c0,0.6,0.6,0.9,1,1.2c0.1,0.1,0.3,0.2,0.4,0.2c1.3,0.5,1.8,1.2,0.8,2.4c-0.3,0.4-0.3,1-0.4,1.6
		C266.3,403.6,266.5,406.5,264.1,408.4z"/>
	<path class="st0" d="M293.3,448.4c-9.5,0-18.9,0-28.4,0c-0.8,0-0.9-0.2-0.9-0.9c0-12.8,0-25.6,0-38.5c1.3,0.4,2.5,1,3.8,0.9
		c1.2-0.1,1.6,0.1,1.5,1.5c-0.2,2.3,1,4.3,1.9,6.3c1.1,2.3,1.2,4.4-0.1,6.6c-0.1,0.2-0.4,0.4-0.1,0.6c0.2,0.1,0.5,0.1,0.7,0.1
		c0.6-0.2,1.2-0.5,1.9-0.6c0.4-0.1,0.9-0.2,0.9,0.5c0.2,2.5,1.3,4.4,3.4,5.9c1.3,1,2.5,2.2,2.6,4.1c0.1,0.9,0.5,0.5,0.8,0.2
		c0.4-0.5,0.8-1.1,1.2-1.6c0.5,1,1.2,1.8,1.9,2.6c1.1,1.2,2.7,2,3.5,3.5c0.1,0.2,0.2,0.2,0.4,0.2c0.3-0.1,0.3-0.3,0.3-0.6
		c0-0.7,0.3-1.2,0.8-1.6c0.7,2,2,3.6,3.4,5.2c0.8,0.9,1.4,1,2.2,0.2c1.6-1.6,2.8-3.5,3.6-5.6c1,0.5,0.9,1.6,1.2,2.5
		c1.4-2.8,4.5-4,5.8-6.9c0.4,0.6,0.7,1,1,1.4c0.2,0.2,0.4,0.4,0.7,0.4c0.3-0.1,0.2-0.4,0.3-0.6c0.4-1.5,1.2-2.8,2.4-3.8
		c2.1-1.8,3.5-3.9,3.6-6.8c0.9,0.2,1.7,0.5,2.4,0.7c0.3,0.1,0.5,0.3,0.8,0.1c0.2-0.3,0-0.5-0.1-0.8c-1.3-2.5-1-4.9,0.2-7.4
		c0.8-1.6,1.4-3.3,1.4-5.2c0-1-0.4-2.2,1.5-1.9c1.3,0.2,2.6-0.5,3.8-1c0,13.1,0,26.1,0,39.2c0,0.7-0.1,0.9-0.9,0.9
		c-9.3,0-18.6,0-27.9,0c0.2-0.3,0.5-0.5,0.7-0.8c0.4-0.7,0.4-1.5-0.1-2.3c-0.4-0.6-1-0.9-1.7-0.8c-0.8,0.1-1.3,0.6-1.5,1.2
		C292.1,446.9,292.4,447.8,293.3,448.4z"/>
	<path class="st1" d="M323.8,408.4c-1.2,0.5-2.5,1.2-3.8,1c-1.9-0.3-1.4,0.9-1.5,1.9c0,1.9-0.6,3.6-1.4,5.2
		c-1.3,2.4-1.5,4.9-0.2,7.4c0.1,0.3,0.3,0.5,0.1,0.8c-0.2,0.3-0.5,0-0.8-0.1c-0.8-0.3-1.6-0.5-2.4-0.7c-0.1,2.9-1.5,5-3.6,6.8
		c-1.2,1-2,2.3-2.4,3.8c-0.1,0.2,0.1,0.5-0.3,0.6c-0.3,0.1-0.5-0.1-0.7-0.4c-0.3-0.4-0.6-0.8-1-1.4c-1.3,2.9-4.4,4.1-5.8,6.9
		c-0.3-0.9-0.2-2-1.2-2.5c-0.8,2.1-2,4-3.6,5.6c-0.8,0.8-1.4,0.7-2.2-0.2c-1.3-1.6-2.7-3.2-3.4-5.2c-0.6,0.4-0.9,0.9-0.8,1.6
		c0,0.3-0.1,0.5-0.3,0.6c-0.2,0.1-0.3,0-0.4-0.2c-0.8-1.5-2.4-2.3-3.5-3.5c-0.7-0.8-1.4-1.6-1.9-2.6c-0.4,0.6-0.7,1.1-1.2,1.6
		c-0.3,0.3-0.8,0.6-0.8-0.2c-0.1-1.8-1.3-3.1-2.6-4.1c-2.1-1.5-3.2-3.4-3.4-5.9c0-0.8-0.6-0.6-0.9-0.5c-0.6,0.2-1.3,0.5-1.9,0.6
		c-0.2,0.1-0.5,0.1-0.7-0.1c-0.2-0.2,0-0.4,0.1-0.6c1.3-2.2,1.1-4.3,0.1-6.6c-0.9-2-2.1-4-1.9-6.3c0.1-1.4-0.3-1.5-1.5-1.5
		c-1.3,0.1-2.6-0.5-3.8-0.9c0-0.2,0-0.5,0-0.7c2.4-1.9,2.2-4.8,2.9-7.3c0.1-0.5,0.1-1.2,0.4-1.6c1-1.3,0.5-2-0.8-2.4
		c-0.1-0.1-0.3-0.1-0.4-0.2c-0.4-0.4-1.1-0.7-1-1.2c0-0.5,0.8-0.6,1.2-0.7c2.2-0.8,3.2-2.7,4.3-4.5c1.5-2.5,3-5.1,5.3-7
		c1.8-1.4,3.7-2.7,6.1-2.8c1.5-0.1,3-0.1,4.5-0.2c1.1-0.1,2.3,0.2,3.4,0.7c1.2,0.6,3.4-0.3,3.8-1.5c1.1-3.1,2.7-6,3.4-9.2
		c0.5-2.4,0.7-4.8-1.3-6.7c-1.7-1.7-5.3-1.3-6.7,0.7c-0.5,0.7-0.3,1.3,0.2,1.9c0.3,0.3,0.5,0.7,0.8,1.1c0.4,0.7,0.3,1.4-0.1,2
		c-0.5,0.6-1.1,0.6-1.8,0.4c-0.7-0.2-1.1-0.9-1.2-1.6c-0.4-3.3,1.5-6,4.9-6.6c2.4-0.4,4.8-0.1,6.8,1.5c2.1,1.6,2.7,4.7,1.8,7.5
		c-0.7,2.3-2.1,4.1-3.5,6c-0.9,1.2-1.7,2.6-2.2,4.1c1.4,0.2,2.6,0.4,3.9-0.1c1.5-0.6,3.1,0,4.7-0.1c5.7-0.3,9.2,3,12,7.2
		c1.3,2,2.4,4.1,4.3,5.7c0.7,0.6,1.4,1,2.1,1.2c1.1,0.2,0.7,0.6,0.3,1.1c-0.6,0.6-1.2,1.2-2,1.6c-0.4,0.2-0.6,0.4-0.3,0.8
		c1.2,1.8,1.3,3.9,1.8,5.9c0.3,1.5,0.8,2.9,2.1,3.8C323.8,407.9,323.8,408.1,323.8,408.4z M294.6,382.7c-1.8,0-3.5,0.1-5,1.1
		c-1.6,1-3.2,2.1-4.4,3.6c-1.7,2.3-2.8,4.8-2.2,7.8c0.5,2.5,1.6,4.7,3.2,6.7c2,2.6,4.3,4.8,7.3,6.2c0.2,0.1,0.5,0.4,0.7,0.1
		c0.9-0.9,2.2-1.1,3.1-2c2.3-2.1,4.5-4.3,5.9-7.1c0.8-1.6,1.6-3.1,1.7-5c0.2-3.9-1.5-6.9-4.6-9.2
		C298.6,383.8,296.9,382.5,294.6,382.7z M268.1,395.8c1.2,0.5,2.2,0.9,3.4,1.1c0.5,0.1,1,0.6,1.4,0.1c0.5-0.5,1.1-0.4,1.5-0.2
		c1.7,0.6,3.4,0.3,5-0.3c2.3-0.8,2.4-0.7,1.7-3.1c-0.8-2.8,0.1-5.5,2.4-7.3c0.5-0.4,1.1-1,1.2-1.6c0.3-0.9,1-1.3,1.6-1.8
		c0.2-0.2,0.6-0.1,0.5-0.5c-2.4-0.7-4.5,0.5-6.6,1.2c-2.8,1-4.9,3-6.5,5.6C272.3,391.4,270.7,393.9,268.1,395.8z M319.6,395.2
		c-1.8-1.3-3-2.9-4.2-4.5c-1.8-2.4-3.1-5.1-5.9-6.7c-1.9-1.1-3.9-1.6-5.8-2.3c-0.9-0.3-2-0.7-3-0.1c0.7,0.8,1.7,1.1,2,2.1
		c0.3,0.8,0.8,1.4,1.4,1.9c2.2,1.7,3.1,4.6,2.4,7.1c-0.6,1.9-0.3,2.4,1.5,3c1.6,0.5,3.3,0.7,5,0.3c0.9-0.2,1.8,0.1,2.7,0.1
		C317,396.3,318.2,395.7,319.6,395.2z M292,418.2c-0.6,1.7-2.2,2.5-3.2,3.9c-0.6,0.8-0.9,1.4-0.6,2.4c0.7,2.5,2.2,4.6,4,6.4
		c1.4,1.3,1.9,1.2,3.4,0.1c2.1-1.6,3.3-3.9,4.3-6.1c0.6-1.2,0.4-2.2-0.7-3.3c-0.9-0.9-2.2-1.5-2.8-2.8c-0.2-0.4-0.4-0.2-0.7,0
		c-0.3,0.3-0.5,0.6-0.7,0.9c-0.3,0.5-0.6,0.6-1.1,0.1C293.4,419.2,292.7,418.8,292,418.2z M274.1,401.6c0.1,1,0.2,2,0.4,2.9
		c0.5,2.3,1.6,4.4,2.7,6.5c0.3,0.6,0.4,0.5,0.7,0.1c1.1-1.2,2.5-2,4.2-2.4c1.8-0.4,2.7-1.8,3.3-3.4c0.4-1,0.6-2.2-0.7-3
		c-1.1-0.7-1.7-1.8-2.4-2.9c-0.4-0.7-1.1-1.4-2-1.2c-1.7,0.5-3.5,0.6-5.2,0.7c-0.5,0-0.6,0.4-0.7,0.7
		C274.3,400.3,274,400.9,274.1,401.6z M310.5,410.9c0.3-0.6,0.6-1.3,0.9-1.8c1.7-2.7,2.2-5.8,2.1-9c-0.1-1.5-0.1-1.5-1.6-1.7
		c-1.2-0.2-2.4-0.1-3.6-0.5c-1.6-0.5-2.5,0-3.1,1.5c-0.2,0.5-0.5,0.9-0.8,1.3c-0.9,1.1-2.7,1.8-1.9,3.9c0.6,1.6,1.3,3.1,3.1,3.5
		C307.4,408.7,309.1,409.6,310.5,410.9z M308.3,412.4c0.3-1-0.4-1.7-1.7-2.1c-0.7-0.2-1.4-0.5-2.1-0.8c-0.8-0.3-1.4-0.1-1.6,0.7
		c-0.2,1.1-0.6,2.3-1.6,2.8c-1.2,0.7-1.8,1.7-2.5,2.7c-0.1,0.2-0.3,0.5-0.2,0.6c0.5,1.2,0.5,2.6,1.6,3.6c0.7,0.6,1.3,1.3,1.8,2.1
		c0.3,0.5,0.5,0.4,0.9,0.1c0.6-0.6,1.3-1.2,1.9-1.9C306.8,418.2,308.1,415.7,308.3,412.4z M285.8,422.9c0.1-0.1,0.1-0.3,0.2-0.4
		c1.3-1.6,3.1-3,3.2-5.4c0-0.3,0.6-0.2,0.3-0.7c-0.7-1-1.3-2.2-2.4-2.9c-1-0.7-1.6-1.6-2-2.7c-0.4-1.2-0.7-1.4-2-0.8
		c-0.7,0.3-1.3,0.5-2,0.8c-0.7,0.3-1.5,0.8-1.3,1.6c0.2,1.2,0.1,2.5,0.6,3.7C281.5,418.9,283.4,421,285.8,422.9z M307.3,432
		c1.3-2.1,3.2-3.7,3.9-6.2c0.3-1.2,1.3-2.3,0.1-3.5c-1.2-1.1-2-2.5-3-3.9c-1.1,1.6-2.3,3-3.7,4.3c-0.8,0.7-1.5,1.7-2.4,1.9
		c-1.1,0.3-0.8,1.1-0.9,1.6c-0.2,0.7,0.3,1.4,1,1.6c0.9,0.2,1.4,0.8,1.9,1.5c0.1,0.2,0.3,0.4,0.5,0.4
		C305.8,430.1,306.6,430.9,307.3,432z M281.2,432.5c0.1-0.6,0.2-0.9,0.5-1.1c1.3-1,2.6-2,4-2.9c0.8-0.5,1.3-1.2,1.2-1.8
		c-0.1-0.6,0.3-1.9-1.1-1.8c-0.1,0-0.2-0.2-0.4-0.3c-2-1.8-4.1-3.5-5.6-5.9c-0.4,1.5-1.3,2.6-2.3,3.5c-0.5,0.5-0.8,1.1-0.8,1.7
		c0,1.6,0.8,3.1,1.5,4.5C278.8,429.8,280.2,430.9,281.2,432.5z M287.7,406.5c-0.3,0.9,0.6,1.8,0.4,2.5c-0.3,1,0.2,1.5,0.6,2.1
		c0.2,0.2,0.3,0.5,0.4,0.7c0.7,2,2.2,3.4,3.8,4.7c0.6,0.6,1.3,0.9,2.2,0.2c2.7-2.3,4.5-5.3,5.6-8.6c0.3-0.9,0.9-2-0.1-3.1
		c-0.8,1.3-1.9,2.2-3,3.2c-1.1,1-1.9,2.2-2.9,3.3c-0.5,0.5-1.1,0.4-1.4-0.1c-1.4-2.2-3.8-3.5-5.4-5.7c-0.2-0.2-0.4-0.2-0.5-0.1
		c-0.4,0.4-0.1,0.8-0.2,1.2c0,0,0.1,0.1,0.1,0.2C287.5,406.9,287.2,406.5,287.7,406.5z M310,413.5c-1.1,2.7,1.1,6.6,4.4,8.1
		c0.2-1-0.1-2,0.2-3c0.8-2.7,1.3-5.4,1.3-8.2c0-0.4,0-0.7-0.1-1.1c-0.2-0.6-0.5-1.3-1.1-1.4c-0.6-0.1-0.9,0.6-1.2,1.1
		c-0.8,1.4-1.6,2.9-2.4,4.3C310.8,413.9,310.5,414.6,310,413.5z M278.2,414c-0.6,0.9-1,0.2-1.3-0.2c-0.9-1.5-1.7-3.1-2.6-4.6
		c-0.2-0.3-0.5-0.6-0.8-0.9c-0.3,0.3-0.8,0.3-1,0.8c-0.7,1.4-0.6,3-0.4,4.3c0.6,2.9,1.6,5.8,1.6,8.8
		C276.6,421.2,279.3,416.9,278.2,414z M318.9,407.9c0.7-0.1,1.6,0,2.1-0.5c0.4-0.5-0.4-1.1-0.5-1.7c0-0.1,0-0.2,0-0.4
		c-0.6-2.2-0.8-4.5-2.1-6.5c-0.7-1.1-1.3-0.7-1.9-0.5c-0.6,0.2-1.2,0.6-1.1,1.5c0.1,1.7,0.2,3.4-0.3,5.1c-0.4,1.2,0.3,1.9,1.1,2.3
		C316.9,407.7,317.8,407.9,318.9,407.9z M272.4,402.8c0-1.1,0.1-1.9-0.2-2.7c-0.3-1.1-1.1-1.4-2-1.4c-0.5,0-0.7,0.7-0.9,1.1
		c-1.2,1.9-1.4,4.1-1.8,6.2c-0.1,0.8-1.1,1.5-0.5,2.2c0.6,0.7,1.7,0.2,2.5,0.3c0.2,0,0.3,0,0.5,0c1.3,0.1,2.1-0.8,2.9-1.5
		c0.4-0.4-0.2-1.1-0.3-1.6C272.6,404.3,272.4,403.5,272.4,402.8z M291.6,432.6c-0.1-0.3-0.3-0.4-0.6-0.5c-0.8-0.5-1.6-1-2.2-1.7
		c-0.5-0.5-1-0.5-1.2-0.2c-0.5,0.5-1.2,0.7-1.8,1.1c-1.6,1.1-1.6,1.3-0.5,2.8c0.4,0.6,0.8,1.1,1.3,1.6c0.6,0.6,1.2,1.4,2.1,0.3
		c0.2-0.3,0.7-0.4,1.1-0.7C290.8,434.6,291.2,433.6,291.6,432.6z M303.7,432.4c0-0.2-0.1-0.3-0.1-0.5c-0.3-0.6-2.8-2.3-3.5-2.4
		c-0.3,0-0.4,0.2-0.6,0.4c-0.7,0.8-1.4,1.5-2.3,2c-0.5,0.3-0.5,0.5-0.3,1c0.7,1.6,2.4,2.2,3.5,3.4c0.1,0.2,0.4,0,0.5-0.2
		c0.8-1,1.6-2,2.4-3C303.4,433,303.6,432.7,303.7,432.4z M293.1,433.7c-0.4,0.2-0.8,0.4-1,0.8c-0.3,0.8-0.3,1.5,0,2.3
		c0.2,0.5,0.8,1.4,0.7,1.5c-1.1,1.2,0.4,1.6,0.7,2.3c0.3,0.6,0.7,0.6,1.3,0c1.4-1.3,0.9-3.1,1.6-4.6c0.3-0.7,0-1.4-0.2-2
		c-0.2-0.4-0.7-0.8-1-0.5C294.5,434.2,293.9,434.8,293.1,433.7z"/>
	<path class="st1" d="M293.3,448.4c-0.9-0.7-1.2-1.6-0.9-2.6c0.2-0.7,0.7-1.1,1.5-1.2c0.8-0.1,1.3,0.2,1.7,0.8
		c0.4,0.7,0.5,1.5,0.1,2.3c-0.2,0.3-0.5,0.5-0.7,0.8C294.5,448.4,293.9,448.4,293.3,448.4z"/>
	<path class="st0" d="M294.6,382.7c2.3-0.2,4,1.1,5.6,2.3c3.1,2.2,4.8,5.2,4.6,9.2c-0.1,1.8-0.9,3.4-1.7,5c-1.4,2.8-3.5,5-5.9,7.1
		c-0.9,0.8-2.3,1-3.1,2c-0.3,0.3-0.5,0-0.7-0.1c-3-1.4-5.3-3.6-7.3-6.2c-1.5-2-2.6-4.3-3.2-6.7c-0.6-3,0.4-5.5,2.2-7.8
		c1.2-1.6,2.8-2.6,4.4-3.6C291.1,382.8,292.8,382.7,294.6,382.7z"/>
	<path class="st0" d="M268.1,395.8c2.6-1.8,4.2-4.3,5.7-6.8c1.6-2.6,3.7-4.6,6.5-5.6c2.1-0.7,4.2-2,6.6-1.2c0,0.4-0.3,0.3-0.5,0.5
		c-0.6,0.5-1.3,0.9-1.6,1.8c-0.2,0.6-0.7,1.2-1.2,1.6c-2.3,1.8-3.3,4.5-2.4,7.3c0.7,2.4,0.6,2.4-1.7,3.1c-1.6,0.6-3.3,0.8-5,0.3
		c-0.5-0.1-1.1-0.3-1.5,0.2c-0.4,0.5-1,0-1.4-0.1C270.3,396.7,269.3,396.2,268.1,395.8z"/>
	<path class="st0" d="M319.6,395.2c-1.4,0.5-2.6,1.1-3.9,1.1c-0.9,0-1.8-0.3-2.7-0.1c-1.7,0.4-3.4,0.2-5-0.3c-1.8-0.6-2.1-1.1-1.5-3
		c0.8-2.6-0.2-5.4-2.4-7.1c-0.6-0.5-1.2-1.1-1.4-1.9c-0.3-1-1.4-1.3-2-2.1c1-0.7,2.1-0.2,3,0.1c2,0.7,4,1.2,5.8,2.3
		c2.8,1.6,4.1,4.3,5.9,6.7C316.6,392.4,317.8,393.9,319.6,395.2z"/>
	<path class="st0" d="M292,418.2c0.7,0.5,1.4,0.9,2,1.5c0.5,0.5,0.8,0.3,1.1-0.1c0.2-0.3,0.4-0.7,0.7-0.9c0.2-0.2,0.5-0.4,0.7,0
		c0.5,1.3,1.8,1.9,2.8,2.8c1.1,1.1,1.3,2.1,0.7,3.3c-1.1,2.3-2.2,4.6-4.3,6.1c-1.6,1.2-2.1,1.3-3.4-0.1c-1.8-1.8-3.3-3.9-4-6.4
		c-0.3-0.9,0-1.6,0.6-2.4C289.8,420.8,291.4,419.9,292,418.2z"/>
	<path class="st2" d="M274.1,401.6c-0.1-0.7,0.3-1.3,0.4-2c0-0.3,0.2-0.6,0.7-0.7c1.8-0.1,3.5-0.2,5.2-0.7c0.9-0.3,1.6,0.4,2,1.2
		c0.6,1.1,1.3,2.2,2.4,2.9c1.3,0.8,1,2,0.7,3c-0.5,1.6-1.5,3-3.3,3.4c-1.7,0.4-3,1.1-4.2,2.4c-0.3,0.3-0.4,0.4-0.7-0.1
		c-1.1-2.1-2.1-4.2-2.7-6.5C274.3,403.6,274.2,402.6,274.1,401.6z"/>
	<path class="st2" d="M310.5,410.9c-1.5-1.3-3.1-2.3-5-2.8c-1.8-0.5-2.5-1.9-3.1-3.5c-0.8-2,1.1-2.7,1.9-3.9
		c0.3-0.4,0.6-0.8,0.8-1.3c0.6-1.5,1.5-2,3.1-1.5c1.2,0.4,2.4,0.3,3.6,0.5c1.4,0.2,1.5,0.2,1.6,1.7c0.2,3.2-0.3,6.2-2.1,9
		C311.1,409.7,310.8,410.3,310.5,410.9z"/>
	<path class="st0" d="M308.3,412.4c-0.2,3.4-1.5,5.8-3.5,7.9c-0.6,0.6-1.2,1.2-1.9,1.9c-0.3,0.4-0.5,0.4-0.9-0.1
		c-0.5-0.8-1.1-1.5-1.8-2.1c-1.1-1-1.1-2.4-1.6-3.6c-0.1-0.2,0.1-0.5,0.2-0.6c0.7-1,1.3-2,2.5-2.7c1-0.5,1.4-1.7,1.6-2.8
		c0.1-0.8,0.8-1.1,1.6-0.7c0.7,0.3,1.4,0.6,2.1,0.8C307.8,410.7,308.5,411.4,308.3,412.4z"/>
	<path class="st0" d="M285.8,422.9c-2.3-1.9-4.3-4-5.4-6.9c-0.5-1.2-0.4-2.5-0.6-3.7c-0.1-0.8,0.6-1.3,1.3-1.6
		c0.6-0.3,1.3-0.5,2-0.8c1.3-0.5,1.7-0.4,2,0.8c0.3,1.1,0.9,2,2,2.7c1,0.7,1.6,1.9,2.4,2.9c0.3,0.5-0.3,0.4-0.3,0.7
		c-0.1,2.4-1.8,3.7-3.2,5.4C285.9,422.7,285.8,422.8,285.8,422.9z"/>
	<path class="st0" d="M307.3,432c-0.7-1.1-1.5-1.9-2.6-2.2c-0.3-0.1-0.4-0.2-0.5-0.4c-0.5-0.7-0.9-1.3-1.9-1.5
		c-0.7-0.2-1.1-0.9-1-1.6c0.1-0.6-0.1-1.3,0.9-1.6c0.9-0.3,1.6-1.2,2.4-1.9c1.4-1.3,2.6-2.7,3.7-4.3c0.9,1.5,1.8,2.8,3,3.9
		c1.2,1.1,0.2,2.3-0.1,3.5C310.5,428.2,308.6,429.8,307.3,432z"/>
	<path class="st0" d="M281.2,432.5c-1-1.6-2.4-2.7-3.2-4.1c-0.7-1.4-1.5-2.8-1.5-4.5c0-0.6,0.3-1.2,0.8-1.7c1.1-0.9,1.9-2,2.3-3.5
		c1.5,2.4,3.6,4.1,5.6,5.9c0.1,0.1,0.2,0.3,0.4,0.3c1.5-0.1,1.1,1.2,1.1,1.8c0.1,0.7-0.4,1.4-1.2,1.8c-1.4,0.8-2.7,1.9-4,2.9
		C281.4,431.6,281.3,431.9,281.2,432.5z"/>
	<path class="st0" d="M287.7,406.5c-0.5,0-0.2,0.4-0.5,0.5c0-0.1-0.1-0.1-0.1-0.2c0-0.4-0.2-0.9,0.2-1.2c0.1-0.1,0.3-0.1,0.5,0.1
		c1.5,2.1,3.9,3.4,5.4,5.7c0.3,0.5,0.9,0.6,1.4,0.1c1-1.1,1.8-2.3,2.9-3.3c1-1,2.2-1.9,3-3.2c1,1,0.4,2.2,0.1,3.1
		c-1.1,3.3-2.9,6.3-5.6,8.6c-0.8,0.7-1.5,0.4-2.2-0.2c-1.5-1.4-3.1-2.7-3.8-4.7c-0.1-0.3-0.2-0.5-0.4-0.7c-0.4-0.6-0.9-1.1-0.6-2.1
		C288.3,408.2,287.3,407.4,287.7,406.5z"/>
	<path class="st2" d="M310,413.5c0.5,1.1,0.8,0.4,1.1-0.1c0.8-1.4,1.6-2.9,2.4-4.3c0.3-0.5,0.5-1.2,1.2-1.1c0.7,0.1,0.9,0.8,1.1,1.4
		c0.1,0.4,0.1,0.7,0.1,1.1c0,2.8-0.4,5.5-1.3,8.2c-0.3,1,0,2-0.2,3C311,420.1,308.9,416.2,310,413.5z"/>
	<path class="st2" d="M278.2,414c1.2,2.9-1.5,7.2-4.5,8.1c0-3-0.9-5.9-1.6-8.8c-0.3-1.3-0.3-2.9,0.4-4.3c0.2-0.4,0.7-0.5,1-0.8
		c0.3,0.3,0.6,0.6,0.8,0.9c0.9,1.5,1.7,3.1,2.6,4.6C277.1,414.2,277.5,415,278.2,414z"/>
	<path class="st2" d="M318.9,407.9c-1,0-2-0.2-2.7-0.6c-0.8-0.5-1.5-1.1-1.1-2.3c0.5-1.6,0.4-3.4,0.3-5.1c-0.1-0.9,0.5-1.3,1.1-1.5
		c0.6-0.2,1.3-0.6,1.9,0.5c1.2,2.1,1.5,4.3,2.1,6.5c0,0.1,0,0.2,0,0.4c0.1,0.6,0.9,1.2,0.5,1.7C320.5,407.9,319.5,407.8,318.9,407.9
		z"/>
	<path class="st2" d="M272.4,402.8c-0.1,0.7,0.1,1.6,0.2,2.5c0.1,0.6,0.7,1.3,0.3,1.6c-0.8,0.7-1.7,1.6-2.9,1.5c-0.2,0-0.3,0-0.5,0
		c-0.9-0.1-1.9,0.4-2.5-0.3c-0.6-0.7,0.4-1.4,0.5-2.2c0.4-2.1,0.6-4.3,1.8-6.2c0.3-0.4,0.4-1.1,0.9-1.1c0.9,0,1.8,0.4,2,1.4
		C272.5,400.9,272.5,401.7,272.4,402.8z"/>
	<path class="st2" d="M291.6,432.6c-0.4,1-0.9,2-1.8,2.6c-0.4,0.2-0.8,0.4-1.1,0.7c-0.9,1.1-1.5,0.4-2.1-0.3
		c-0.5-0.5-0.9-1.1-1.3-1.6c-1.2-1.6-1.1-1.7,0.5-2.8c0.6-0.4,1.2-0.6,1.8-1.1c0.3-0.2,0.8-0.3,1.2,0.2c0.6,0.7,1.4,1.2,2.2,1.7
		C291.3,432.2,291.6,432.3,291.6,432.6z"/>
	<path class="st2" d="M303.7,432.4c-0.1,0.3-0.3,0.6-0.4,0.8c-0.8,1-1.6,2-2.4,3c-0.1,0.2-0.3,0.4-0.5,0.2c-1-1.3-2.7-1.9-3.5-3.4
		c-0.2-0.5-0.2-0.7,0.3-1c0.9-0.5,1.6-1.2,2.3-2c0.1-0.2,0.3-0.4,0.6-0.4c0.7,0,3.2,1.7,3.5,2.4
		C303.6,432.1,303.6,432.2,303.7,432.4z"/>
	<path class="st0" d="M293.1,433.7c0.8,1,1.4,0.5,2.1-0.2c0.3-0.3,0.8,0.1,1,0.5c0.3,0.6,0.6,1.3,0.2,2c-0.7,1.5-0.2,3.3-1.6,4.6
		c-0.7,0.6-1.1,0.6-1.3,0c-0.3-0.7-1.8-1.1-0.7-2.3c0.2-0.2-0.4-1-0.7-1.5c-0.3-0.8-0.3-1.5,0-2.3
		C292.3,434.1,292.7,434,293.1,433.7z"/>
</g>
</svg>
