<?xml version="1.0" standalone="no"?>
<!DOCTYPE svg PUBLIC "-//W3C//DTD SVG 20010904//EN"
 "http://www.w3.org/TR/2001/REC-SVG-20010904/DTD/svg10.dtd">
<svg version="1.0" xmlns="http://www.w3.org/2000/svg"
 width="245.000000pt" height="213.000000pt" viewBox="0 0 245.000000 213.000000"
 preserveAspectRatio="xMidYMid meet">
<metadata>
Created by potrace 1.16, written by Peter Selinger 2001-2019
</metadata>
<g transform="translate(0.000000,213.000000) scale(0.100000,-0.100000)"
fill="#000000" stroke="none">
<path d="M840 2080 c-31 -31 -20 -100 16 -100 19 0 15 -35 -18 -170 -39 -161
-102 -260 -165 -260 -66 0 -160 89 -244 230 -39 66 -39 68 -23 97 23 40 13 77
-26 93 -25 10 -34 10 -56 -4 -21 -14 -25 -24 -22 -54 2 -30 9 -40 34 -52 30
-15 31 -18 104 -310 40 -162 79 -316 87 -342 l14 -48 674 0 674 0 10 38 c6 20
46 178 90 351 44 172 81 314 83 315 50 22 63 34 66 63 4 38 -19 63 -58 63 -54
0 -80 -61 -44 -101 15 -17 14 -22 -16 -76 -79 -143 -197 -263 -256 -263 -81 0
-141 101 -185 312 l-22 108 26 20 c35 27 35 62 1 89 -35 27 -49 26 -80 -4 -28
-28 -26 -58 7 -87 24 -21 25 -20 -12 -135 -89 -277 -214 -398 -352 -339 -76
31 -160 163 -218 338 -34 107 -35 112 -9 138 11 11 20 31 20 45 0 30 -32 65
-60 65 -11 0 -29 -9 -40 -20z"/>
<path d="M1782 1978 c-17 -17 -15 -63 3 -78 12 -10 12 -18 -4 -61 -27 -69 -66
-134 -97 -158 -31 -25 -26 -49 17 -86 39 -32 71 -32 126 1 33 19 42 30 38 43
-15 47 -35 160 -35 198 0 32 5 45 20 53 29 15 36 56 15 80 -20 22 -65 26 -83
8z"/>
<path d="M590 1950 c-26 -26 -25 -46 5 -76 15 -15 25 -36 25 -54 0 -28 -24
-166 -35 -201 -4 -13 2 -22 24 -33 51 -27 89 -21 127 20 l34 36 -25 30 c-29
35 -60 93 -80 149 -12 32 -12 39 1 50 21 18 18 76 -5 89 -29 15 -49 12 -71
-10z"/>
<path d="M1182 1954 c-36 -25 -25 -91 18 -106 17 -5 -27 -120 -75 -193 -34
-51 -42 -71 -34 -81 17 -21 93 -54 122 -54 32 0 94 24 119 46 16 15 16 18 -7
54 -31 49 -71 146 -80 190 -5 29 -2 39 14 54 40 36 14 106 -39 106 -9 0 -26
-7 -38 -16z"/>
<path d="M540 1075 l0 -55 675 0 675 0 0 55 0 55 -675 0 -675 0 0 -55z"/>
<path d="M23 918 c2 -7 87 -215 187 -461 l183 -448 119 3 119 3 179 436 c98
240 181 446 185 458 7 21 6 22 -136 19 l-142 -3 -100 -277 c-56 -152 -104
-275 -107 -273 -4 2 -51 128 -106 279 l-99 276 -144 0 c-110 0 -142 -3 -138
-12z"/>
<path d="M1160 470 l0 -460 125 0 125 0 0 460 0 460 -125 0 -125 0 0 -460z"/>
<path d="M1650 471 l0 -461 125 0 125 0 0 134 0 133 138 5 c123 4 143 7 193
32 66 31 132 98 162 164 17 36 22 66 22 132 0 73 -4 92 -28 137 -36 69 -88
120 -156 152 -55 26 -59 26 -318 29 l-263 3 0 -460z m461 222 c31 -19 59 -68
59 -105 0 -37 -37 -88 -76 -104 -23 -10 -61 -14 -112 -12 l-77 3 -3 118 -3
117 92 0 c68 0 98 -4 120 -17z"/>
</g>
</svg>
